<svg xmlns="http://www.w3.org/2000/svg" viewBox="0 0 100 100">
  <g transform="translate(0.53,77.83) scale(0.0773)">
    <path d="M34 0Q19 0 19 -11Q19 -20 32 -23L55 -27Q76 -31 82.5 -38.0Q89 -45 89 -66V-654Q89 -675 82.5 -682.0Q76 -689 55 -693L32 -697Q19 -700 19 -709Q19 -720 34 -720H215Q230 -720 230 -709Q230 -700 217 -697L194 -693Q173 -689 166.5 -682.0Q160 -675 160 -654V-66Q160 -45 166.5 -38.0Q173 -31 194 -27L217 -23Q230 -20 230 -11Q230 0 215 0Z M283 0Q268 0 268 -11Q268 -20 281 -23L304 -27Q325 -31 331.5 -38.0Q338 -45 338 -66V-654Q338 -675 331.5 -682.0Q325 -689 304 -693L281 -697Q268 -700 268 -709Q268 -720 283 -720H466Q481 -720 481 -708Q481 -699 470 -697L443 -693Q422 -690 415.5 -682.0Q409 -674 409 -653V-383Q409 -373 415.0 -371.0Q421 -369 426 -378L590 -635Q623 -686 584 -693L561 -697Q548 -700 548 -710Q548 -720 562 -720H732Q746 -720 746 -709Q746 -698 733 -697L714 -695Q683 -692 663.0 -677.0Q643 -662 618 -623L505 -446Q495 -429 504 -413L692 -59Q700 -43 708.5 -36.0Q717 -29 729 -27L753 -23Q765 -22 765 -11Q765 0 751 0H573Q559 0 559 -11Q559 -21 572 -23L589 -25Q628 -30 605 -74L461 -348Q457 -356 452.0 -356.5Q447 -357 442 -349L421 -316Q414 -306 411.5 -297.0Q409 -288 409 -274V-67Q409 -46 415.5 -38.0Q422 -30 443 -27L470 -23Q481 -21 481 -12Q481 0 466 0Z M779 0Q764 0 764 -11Q764 -20 777 -23L800 -27Q821 -31 827.5 -38.0Q834 -45 834 -66V-654Q834 -675 827.5 -682.0Q821 -689 800 -693L777 -697Q764 -700 764 -709Q764 -720 779 -720H962Q977 -720 977 -708Q977 -699 966 -697L939 -693Q918 -690 911.5 -682.0Q905 -674 905 -653V-383Q905 -373 911.0 -371.0Q917 -369 922 -378L1086 -635Q1119 -686 1080 -693L1057 -697Q1044 -700 1044 -710Q1044 -720 1058 -720H1228Q1242 -720 1242 -709Q1242 -698 1229 -697L1210 -695Q1179 -692 1159.0 -677.0Q1139 -662 1114 -623L1001 -446Q991 -429 1000 -413L1188 -59Q1196 -43 1204.5 -36.0Q1213 -29 1225 -27L1249 -23Q1261 -22 1261 -11Q1261 0 1247 0H1069Q1055 0 1055 -11Q1055 -21 1068 -23L1085 -25Q1124 -30 1101 -74L957 -348Q953 -356 948.0 -356.5Q943 -357 938 -349L917 -316Q910 -306 907.5 -297.0Q905 -288 905 -274V-67Q905 -46 911.5 -38.0Q918 -30 939 -27L966 -23Q977 -21 977 -12Q977 0 962 0Z" fill="#000000"/>
  </g>
</svg>
